<svg width="32" height="32" viewBox="0 0 32 32" fill="none" xmlns="http://www.w3.org/2000/svg">
<path d="M27 4H5C2.79086 4 1 5.79086 1 8V24C1 26.2091 2.79086 28 5 28H27C29.2091 28 31 26.2091 31 24V8C31 5.79086 29.2091 4 27 4Z" fill="white"/>
<path d="M1.63867 5.846H30.3627C29.6517 4.738 28.4157 4 27.0007 4H5.00067C3.58667 4 2.35067 4.738 1.63867 5.846Z" fill="#A62842"/>
<path d="M2.03 7.69141C2.022 7.79441 2 7.89341 2 7.99941V9.53841H31V7.99941C31 7.89441 30.978 7.79541 30.97 7.69141H2.03Z" fill="#A62842"/>
<path d="M2 11.3867H31V13.2327H2V11.3867Z" fill="#A62842"/>
<path d="M2 15.0781H31V16.9241H2V15.0781Z" fill="#A62842"/>
<path d="M1 18.7695H31V20.6155H1V18.7695Z" fill="#A62842"/>
<path d="M1 23.9999C1 24.1049 1.023 24.2039 1.031 24.3079H30.969C30.977 24.2049 31 24.1059 31 23.9999V22.4609H1V23.9999Z" fill="#A62842"/>
<path d="M30.3627 26.1523H1.63867C2.34967 27.2603 3.58567 27.9983 5.00067 27.9983H27.0007C28.4147 27.9983 29.6507 27.2603 30.3627 26.1523Z" fill="#A62842"/>
<path d="M5 4H16V16.923H1V8C1 5.792 2.792 4 5 4Z" fill="#102D5E"/>
<path opacity="0.15" d="M27 4H5C2.791 4 1 5.791 1 8V24C1 26.209 2.791 28 5 28H27C29.209 28 31 26.209 31 24V8C31 5.791 29.209 4 27 4ZM30 24C30 25.654 28.654 27 27 27H5C3.346 27 2 25.654 2 24V8C2 6.346 3.346 5 5 5H27C28.654 5 30 6.346 30 8V24Z" fill="black"/>
<path opacity="0.2" d="M27 5H5C3.343 5 2 6.343 2 8V9C2 7.343 3.343 6 5 6H27C28.657 6 30 7.343 30 9V8C30 6.343 28.657 5 27 5Z" fill="white"/>
<path d="M4.6013 7.46484L5.1933 7.03484H4.4623L4.2363 6.33984L4.0103 7.03484H3.2793L3.8703 7.46484L3.6443 8.15984L4.2363 7.73084L4.8273 8.15984L4.6013 7.46484Z" fill="white"/>
<path d="M7.57981 7.46484L8.17181 7.03484H7.44081L7.21481 6.33984L6.98881 7.03484H6.25781L6.84881 7.46484L6.62281 8.15984L7.21481 7.73084L7.80581 8.15984L7.57981 7.46484Z" fill="white"/>
<path d="M10.5593 7.46484L11.1503 7.03484H10.4193L10.1933 6.33984L9.96733 7.03484H9.23633L9.82733 7.46484L9.60233 8.15984L10.1933 7.73084L10.7843 8.15984L10.5593 7.46484Z" fill="white"/>
<path d="M6.06614 9.28125L6.65814 8.85225H5.92714L5.70114 8.15625L5.47514 8.85225H4.74414L5.33514 9.28125L5.10914 9.97725L5.70114 9.54725L6.29214 9.97725L6.06614 9.28125Z" fill="white"/>
<path d="M9.04566 9.28125L9.63666 8.85225H8.90566L8.67966 8.15625L8.45366 8.85225H7.72266L8.31366 9.28125L8.08866 9.97725L8.67966 9.54725L9.27066 9.97725L9.04566 9.28125Z" fill="white"/>
<path d="M12.0242 9.28125L12.6152 8.85225H11.8842L11.6582 8.15625L11.4322 8.85225H10.7012L11.2932 9.28125L11.0672 9.97725L11.6582 9.54725L12.2502 9.97725L12.0242 9.28125Z" fill="white"/>
<path d="M6.06614 12.9258L6.65814 12.4958H5.92714L5.70114 11.8008L5.47514 12.4958H4.74414L5.33514 12.9258L5.10914 13.6208L5.70114 13.1918L6.29214 13.6208L6.06614 12.9258Z" fill="white"/>
<path d="M9.04566 12.9258L9.63666 12.4958H8.90566L8.67966 11.8008L8.45366 12.4958H7.72266L8.31366 12.9258L8.08866 13.6208L8.67966 13.1918L9.27066 13.6208L9.04566 12.9258Z" fill="white"/>
<path d="M12.0242 12.9258L12.6152 12.4958H11.8842L11.6582 11.8008L11.4322 12.4958H10.7012L11.2932 12.9258L11.0672 13.6208L11.6582 13.1918L12.2502 13.6208L12.0242 12.9258Z" fill="white"/>
<path d="M13.5398 7.46484L14.1308 7.03484H13.3998L13.1738 6.33984L12.9478 7.03484H12.2168L12.8088 7.46484L12.5828 8.15984L13.1738 7.73084L13.7658 8.15984L13.5398 7.46484Z" fill="white"/>
<path d="M4.6013 11.1055L5.1933 10.6755H4.4623L4.2363 9.98047L4.0103 10.6755H3.2793L3.8703 11.1055L3.6443 11.8005L4.2363 11.3705L4.8273 11.8005L4.6013 11.1055Z" fill="white"/>
<path d="M7.57981 11.1055L8.17181 10.6755H7.44081L7.21481 9.98047L6.98881 10.6755H6.25781L6.84881 11.1055L6.62281 11.8005L7.21481 11.3705L7.80581 11.8005L7.57981 11.1055Z" fill="white"/>
<path d="M10.5593 11.1055L11.1503 10.6755H10.4193L10.1933 9.98047L9.96733 10.6755H9.23633L9.82733 11.1055L9.60233 11.8005L10.1933 11.3705L10.7843 11.8005L10.5593 11.1055Z" fill="white"/>
<path d="M13.5398 11.1055L14.1308 10.6755H13.3998L13.1738 9.98047L12.9478 10.6755H12.2168L12.8088 11.1055L12.5828 11.8005L13.1738 11.3705L13.7658 11.8005L13.5398 11.1055Z" fill="white"/>
<path d="M4.6013 14.7422L5.1933 14.3132H4.4623L4.2363 13.6172L4.0103 14.3132H3.2793L3.8703 14.7422L3.6443 15.4382L4.2363 15.0082L4.8273 15.4382L4.6013 14.7422Z" fill="white"/>
<path d="M7.57981 14.7422L8.17181 14.3132H7.44081L7.21481 13.6172L6.98881 14.3132H6.25781L6.84881 14.7422L6.62281 15.4382L7.21481 15.0082L7.80581 15.4382L7.57981 14.7422Z" fill="white"/>
<path d="M10.5593 14.7422L11.1503 14.3132H10.4193L10.1933 13.6172L9.96733 14.3132H9.23633L9.82733 14.7422L9.60233 15.4382L10.1933 15.0082L10.7843 15.4382L10.5593 14.7422Z" fill="white"/>
<path d="M13.5398 14.7422L14.1308 14.3132H13.3998L13.1738 13.6172L12.9478 14.3132H12.2168L12.8088 14.7422L12.5828 15.4382L13.1738 15.0082L13.7658 15.4382L13.5398 14.7422Z" fill="white"/>
</svg>
